<?xml version="1.0" encoding="utf-8"?>
<!-- Generator: Adobe Illustrator 24.1.0, SVG Export Plug-In . SVG Version: 6.00 Build 0)  -->
<svg version="1.1" id="Calque_1" xmlns="http://www.w3.org/2000/svg" xmlns:xlink="http://www.w3.org/1999/xlink" x="0px" y="0px"
	 viewBox="0 0 606.8 610.7" style="enable-background:new 0 0 606.8 610.7;" xml:space="preserve">
<style type="text/css">
	.st0{fill:#FFFFFF;}
	.st1{opacity:0.6;fill:#FFFFFF;}
</style>
<path class="st0" d="M338.8,8.3l-0.1,2.3l-20.4-1.3l-1,15.7l17,1.1l-0.2,2.3l-17-1.1l-1.1,16.2l20.4,1.3l-0.2,2.3L313,45.6l2.5-38.8
	L338.8,8.3z"/>
<path class="st0" d="M346,48.5l5.2-26.9l1.4,0.3c0.4,0,0.7,0.4,0.7,0.8c0,0,0,0,0,0l-0.5,4.1c1.5-1.3,3.2-2.3,5-2.9
	c1.8-0.6,3.8-0.8,5.7-0.4c1.3,0.2,2.6,0.7,3.7,1.4c1,0.6,1.8,1.5,2.4,2.6c0.6,1.1,0.9,2.3,1.1,3.5c0.1,1.4,0,2.9-0.2,4.3l-3.3,17.2
	l-2.6-0.5l3.3-17.2c0.5-2.1,0.3-4.3-0.6-6.3c-1-1.8-2.8-2.9-4.9-3.2c-1.7-0.3-3.5-0.2-5.2,0.4c-1.8,0.7-3.4,1.7-4.8,3L348.5,49
	L346,48.5z"/>
<path class="st0" d="M398.6,36.9c-0.2,0.2-0.4,0.3-0.7,0.2c-0.3-0.1-0.5-0.3-0.6-0.6c-0.2-0.3-0.6-0.7-1-1.1c-0.5-0.5-1-0.9-1.6-1.3
	c-0.8-0.5-1.6-0.9-2.5-1.1c-0.9-0.3-1.8-0.4-2.7-0.4c-0.8,0-1.6,0.2-2.3,0.5c-0.7,0.3-1.3,0.7-1.8,1.2c-0.5,0.5-0.8,1.1-1,1.7
	c-0.3,0.7-0.3,1.5,0,2.2c0.3,0.7,0.7,1.4,1.2,1.9c0.6,0.6,1.3,1.2,2,1.7c0.8,0.5,1.6,1.1,2.4,1.7s1.6,1.2,2.4,1.8
	c0.7,0.6,1.4,1.3,1.9,2c0.5,0.7,0.9,1.5,1.1,2.4c0.2,1,0.1,1.9-0.2,2.9c-0.3,1.1-0.9,2.1-1.6,3c-0.7,0.8-1.6,1.5-2.6,2
	c-1.1,0.5-2.2,0.8-3.4,0.8c-1.4,0.1-2.8-0.1-4.1-0.6c-1.6-0.5-3.2-1.3-4.5-2.4c-1.1-1-2.1-2.1-2.9-3.4l0.9-0.7
	c0.1-0.1,0.2-0.2,0.4-0.2c0.2,0,0.3,0,0.5,0c0.3,0.1,0.6,0.4,0.7,0.7c0.3,0.5,0.6,0.9,1,1.3c0.5,0.6,1.1,1.1,1.7,1.5
	c0.9,0.6,1.8,1.1,2.8,1.3c1,0.3,2,0.5,3.1,0.5c0.9,0,1.7-0.2,2.5-0.6c0.7-0.3,1.3-0.8,1.9-1.5c0.5-0.6,0.9-1.3,1.1-2.1
	c0.3-0.8,0.3-1.6,0-2.4c-0.3-0.7-0.7-1.4-1.2-2c-0.6-0.6-1.3-1.2-2-1.7l-2.3-1.7c-0.8-0.6-1.6-1.2-2.4-1.8c-0.7-0.6-1.4-1.2-1.9-2
	c-0.5-0.7-0.9-1.5-1.1-2.4c-0.2-1-0.1-2,0.2-2.9c0.3-0.9,0.8-1.7,1.4-2.4c0.7-0.7,1.5-1.3,2.4-1.7c1-0.4,2.1-0.7,3.2-0.7
	c1.3,0,2.6,0.1,3.8,0.5c1.4,0.4,2.8,1.1,4,2c1.1,0.9,2,2,2.8,3.2L398.6,36.9z"/>
<path class="st0" d="M422,42c1.3,0.6,2.6,1.4,3.6,2.4c1,1,1.8,2.2,2.2,3.6c0.5,1.4,0.7,2.9,0.6,4.3c-0.1,1.7-0.6,3.4-1.3,5
	c-0.1,0.3-0.3,0.5-0.5,0.7c-0.2,0.1-0.4,0.1-0.6,0l-18.1-7.8l-0.2,0.5c-0.8,1.7-1.3,3.4-1.5,5.3c-0.2,1.5-0.1,3,0.3,4.4
	c0.4,1.3,1.1,2.5,2,3.5c1,1,2.2,1.8,3.5,2.4c1.1,0.5,2.3,0.8,3.5,1c0.9,0.1,1.8,0.1,2.7,0.1c0.6,0,1.3-0.1,1.9-0.3
	c0.3-0.1,0.7-0.1,1-0.1c0.2,0.1,0.4,0.3,0.4,0.5l0.3,1.1c-0.7,0.4-1.4,0.6-2.2,0.7c-0.9,0.2-1.8,0.2-2.7,0.2c-1,0-2-0.2-2.9-0.4
	c-1-0.2-2-0.5-3-0.9c-1.6-0.7-3.1-1.7-4.3-2.9c-1.1-1.2-2-2.6-2.5-4.2c-0.5-1.7-0.7-3.5-0.5-5.2c0.2-2.1,0.8-4.1,1.6-6
	c0.7-1.7,1.7-3.3,2.9-4.7c1.1-1.3,2.4-2.3,3.9-3c1.5-0.7,3.1-1,4.7-1C418.6,41,420.4,41.3,422,42z M421.3,43.8
	c-1.2-0.5-2.4-0.8-3.7-0.9c-1.2,0-2.3,0.2-3.4,0.6c-1.1,0.5-2.1,1.1-3,1.9c-1,0.9-1.8,2-2.5,3.2l16.5,7.2c0.5-1.2,0.9-2.5,1-3.9
	c0.1-1.1,0-2.3-0.4-3.4c-0.4-1-0.9-2-1.7-2.8C423.3,44.9,422.4,44.3,421.3,43.8L421.3,43.8z"/>
<path class="st0" d="M428.9,75.5l14.4-23.3l1.2,0.8c0.4,0.2,0.5,0.6,0.4,1c0,0,0,0,0,0l-1.8,3.5c0.8-0.3,1.7-0.6,2.5-0.9
	c0.8-0.2,1.7-0.3,2.5-0.3c0.8,0,1.6,0.1,2.4,0.3c0.8,0.2,1.6,0.5,2.3,1c1.5,0.9,2.7,2.3,3.2,4c0.4,1.8,0.2,3.7-0.5,5.4
	c0.8-0.7,1.7-1.3,2.7-1.8c0.9-0.4,1.8-0.6,2.8-0.7c0.9-0.1,1.9,0,2.8,0.3c0.9,0.2,1.8,0.6,2.6,1.1c1,0.6,2,1.5,2.7,2.5
	c0.7,0.9,1.1,2,1.3,3.2c0.2,1.2,0.1,2.5-0.2,3.7c-0.4,1.4-1,2.8-1.8,4.1l-9.2,14.9l-2.2-1.4l9.2-14.9c1.3-1.8,1.9-3.9,1.7-6.1
	c-0.3-1.9-1.4-3.5-3.1-4.4c-0.8-0.5-1.7-0.8-2.6-1c-0.9-0.2-1.9-0.1-2.8,0.1c-1,0.3-1.9,0.7-2.7,1.3c-1,0.8-1.8,1.7-2.4,2.7
	l-9.2,14.9l-2.2-1.4l9.2-14.9c1.2-1.8,1.9-3.9,1.8-6c-0.2-1.8-1.3-3.4-2.8-4.2c-1.3-0.8-2.7-1.1-4.2-1c-1.7,0.1-3.3,0.6-4.8,1.3
	l-10.9,17.6L428.9,75.5z"/>
<path class="st0" d="M467.2,100.7L492.9,70l2,1.7l-11.2,13.4c1.9-0.5,3.8-0.5,5.7-0.2c1.9,0.3,3.6,1.2,5,2.4
	c2.4,1.8,3.8,4.7,3.8,7.7c0,3-1.6,6.3-4.6,9.8c-1.2,1.5-2.6,2.7-4.2,3.8c-1.4,1-3,1.6-4.7,2c-1.6,0.3-3.2,0.3-4.8-0.1
	c-1.7-0.4-3.3-1.3-4.6-2.4c-2.7-2.1-4.1-5.4-3.7-8.8l-2.3,2.5c-0.3,0.3-0.7,0.3-1,0c0,0,0,0,0,0L467.2,100.7z M492.5,88.4
	c-1.3-1.1-2.9-1.9-4.7-2.1c-1.9-0.2-3.7-0.1-5.5,0.4L473,97.8c-0.2,1.6-0.1,3.3,0.5,4.8c1.3,2.7,3.7,4.7,6.6,5.6
	c1.3,0.3,2.6,0.4,3.9,0.1c1.4-0.3,2.7-0.9,3.9-1.8c1.4-1,2.6-2.1,3.6-3.4c2.6-3.1,4-5.9,4-8.3C495.7,92.2,494.5,89.9,492.5,88.4z"/>
<path class="st0" d="M521.9,96.1l-28.4,28.2l-1.8-1.8L520,94.3L521.9,96.1z"/>
<path class="st0" d="M529.8,123.1c0.9,1.1,1.7,2.4,2.1,3.8c0.4,1.3,0.6,2.7,0.4,4.1c-0.2,1.5-0.7,2.9-1.4,4.1
	c-0.9,1.5-2,2.8-3.4,3.9c-0.2,0.2-0.5,0.3-0.8,0.4c-0.2,0-0.4-0.1-0.5-0.3L513.6,124l-0.4,0.3c-1.4,1.1-2.7,2.5-3.7,4
	c-0.8,1.2-1.4,2.6-1.7,4.1c-0.3,1.3-0.2,2.7,0.2,4c0.4,1.4,1.1,2.6,2.1,3.7c0.8,0.9,1.6,1.8,2.6,2.4c0.8,0.5,1.6,1,2.4,1.3
	c0.6,0.2,1.2,0.5,1.8,0.6c0.3,0,0.6,0.2,0.9,0.4c0.1,0.2,0.2,0.4,0.1,0.6l-0.2,1.1c-0.8,0-1.6-0.1-2.3-0.4c-0.9-0.3-1.7-0.6-2.5-1.1
	c-0.9-0.5-1.7-1.1-2.5-1.7c-0.8-0.6-1.5-1.4-2.2-2.2c-1.1-1.3-2-2.9-2.5-4.6c-0.5-1.6-0.6-3.2-0.4-4.9c0.3-1.7,0.9-3.4,1.9-4.9
	c1.1-1.8,2.5-3.3,4.2-4.7c1.4-1.2,3-2.2,4.7-2.8c1.5-0.6,3.2-0.9,4.8-0.9c1.6,0,3.2,0.4,4.7,1.2
	C527.3,120.6,528.7,121.7,529.8,123.1z M528.3,124.4c-0.8-1-1.8-1.9-2.9-2.5c-1-0.6-2.1-0.9-3.3-1c-1.2-0.1-2.4,0-3.5,0.4
	c-1.3,0.4-2.5,1-3.6,1.7l11.5,13.8c1-0.8,1.9-1.9,2.6-3c0.6-1,1-2.1,1.2-3.2c0.1-1.1,0.1-2.2-0.3-3.2
	C529.7,126.3,529.1,125.2,528.3,124.4z"/>
<path class="st0" d="M521.8,154.4c0.5-0.4,1.1-0.5,1.7-0.4c0.6,0.1,1.2,0.5,1.6,1c0.5,0.6,0.6,1.3,0.4,2c-0.2,0.7-0.7,1.3-1.4,1.8
	c-0.6,0.4-1.3,0.8-2,1.1c-0.8,0.3-1.6,0.5-2.4,0.6c-0.8,0.1-1.7,0.2-2.5,0.2c-0.9,0-1.7-0.1-2.5-0.3l0.1-0.6c0-0.2,0.1-0.3,0.2-0.4
	c0.1-0.1,0.2-0.1,0.3-0.1c0.1,0,0.2,0,0.3,0c0.4,0.1,0.7,0.1,1.1,0.1c0.5,0,1,0,1.5,0c0.6,0,1.2-0.1,1.8-0.3
	c0.6-0.2,1.2-0.4,1.8-0.7c-0.1-0.1-0.2-0.2-0.3-0.2c-0.1-0.1-0.2-0.2-0.3-0.4c-0.4-0.5-0.5-1.1-0.4-1.8
	C520.9,155.3,521.3,154.7,521.8,154.4z"/>
<path class="st0" d="M573.6,194.1c0.6,1.2,0.9,2.5,0.9,3.8c0,1.3-0.3,2.7-0.8,3.9c-0.7,1.3-1.5,2.5-2.7,3.6c-1.3,1.2-2.9,2.2-4.5,3
	c-0.2,0.1-0.5,0.2-0.8,0.2c-0.2,0-0.4-0.2-0.4-0.4l-7.8-16.4c-1.7,0.8-3.2,1.7-4.6,2.9c-1.1,0.9-2,2.1-2.7,3.4
	c-0.6,1.1-0.9,2.4-0.9,3.7c0,1.3,0.3,2.6,0.9,3.8c0.5,1,1.1,1.9,1.8,2.7c0.6,0.6,1.2,1.2,1.9,1.6c0.5,0.3,1,0.7,1.6,0.9
	c0.3,0.1,0.6,0.3,0.8,0.6c0.1,0.2,0.1,0.4,0,0.6l-0.5,1c-0.7-0.2-1.4-0.4-2.1-0.8c-0.7-0.4-1.4-0.9-2.1-1.5c-0.7-0.6-1.3-1.3-1.9-2
	c-0.6-0.7-1.1-1.6-1.5-2.4c-1-2-1.4-4.4-0.9-6.6c0.6-2.4,1.9-4.5,3.8-6.1c-2.4,0.4-4.9,0.1-7-0.9c-2.2-1.1-3.9-3-4.8-5.2
	c-0.7-1.5-1.1-3.1-1.2-4.8c0-1.6,0.3-3.1,1-4.5c0.7-1.5,1.8-2.9,3-4c3-2.6,6.6-4.3,10.5-5c1.7-0.3,3.4-0.2,5,0.2
	c1.5,0.4,2.9,1.1,4.2,2.1c1.3,1.1,2.3,2.5,3,4c1.1,2.1,1.4,4.6,0.9,6.9c-0.6,2.3-1.8,4.4-3.6,6c1.2-0.2,2.4-0.2,3.6-0.1
	c1.1,0.1,2.2,0.5,3.2,0.9c1,0.5,1.9,1.2,2.7,2C572.4,192,573.1,193,573.6,194.1z M541.1,186.7c0.6,1.2,1.4,2.3,2.5,3.2
	c1,0.8,2.2,1.3,3.4,1.5c1.4,0.2,2.8,0.2,4.1-0.1c3.3-0.7,6.4-2.2,9-4.3c1.1-0.9,2-1.9,2.7-3.2c0.6-1.1,1-2.3,1-3.6
	c0-1.4-0.3-2.7-0.9-3.9c-0.6-1.3-1.4-2.4-2.5-3.2c-1-0.8-2.2-1.3-3.4-1.5c-1.4-0.2-2.8-0.2-4.2,0.1c-3.3,0.7-6.4,2.2-9,4.3
	c-1.1,0.9-2,2-2.7,3.2c-0.6,1.1-1,2.3-1,3.6C540.2,184.1,540.5,185.4,541.1,186.7z M571.8,194.9c-0.5-1.1-1.3-2.1-2.2-2.9
	c-0.9-0.7-1.9-1.3-3-1.6c-1.2-0.3-2.4-0.4-3.6-0.3c-1.4,0.1-2.8,0.5-4.1,1L566,206c1.3-0.6,2.5-1.4,3.5-2.3c0.9-0.8,1.6-1.7,2.2-2.8
	C572.7,199.1,572.7,196.8,571.8,194.9L571.8,194.9z"/>
<path class="st0" d="M581.9,217.4l-16.8,5c-2.1,0.5-4,1.7-5.3,3.4c-1.1,1.7-1.3,3.9-0.5,5.8c0.5,1.7,1.4,3.2,2.7,4.4
	c1.4,1.3,3,2.3,4.8,2.9l19.7-5.9l0.8,2.5l-26.2,7.9l-0.4-1.4c-0.2-0.3-0.1-0.7,0.2-0.9c0.1,0,0.1-0.1,0.2-0.1l3.9-1.4
	c-1.8-0.7-3.5-1.8-4.9-3.1c-1.4-1.3-2.5-3-3-4.9c-0.4-1.3-0.6-2.6-0.5-4c0.1-1.2,0.5-2.3,1.2-3.3c0.7-1,1.6-1.9,2.6-2.6
	c1.2-0.8,2.6-1.4,4-1.8l16.8-5L581.9,217.4z"/>
<path class="st0" d="M565.3,264l-0.4-2.3l24.9-16.1l0.4,2c0,0.2,0,0.4-0.1,0.6c-0.1,0.2-0.2,0.3-0.4,0.4L570,261.3
	c-0.4,0.2-0.7,0.4-1.1,0.6l-1.1,0.5l1.2,0.1c0.4,0,0.8,0.1,1.2,0.2l22.8,5.2c0.2,0.1,0.4,0.1,0.5,0.3c0.1,0.1,0.2,0.3,0.3,0.5l0.3,2
	L565.3,264z"/>
<path class="st0" d="M567.9,282.7l27.3-2l0.1,1.4c0,0.2,0,0.5-0.1,0.7c-0.2,0.2-0.4,0.3-0.6,0.3l-5.7,0.6c2,0.6,3.9,1.6,5.5,3.1
	c1.4,1.4,2.2,3.3,2.3,5.3c0.1,0.8,0,1.5-0.1,2.3c-0.1,0.7-0.3,1.4-0.6,2l-1.8-0.2c-0.3,0-0.5-0.2-0.5-0.5c0,0,0,0,0,0
	c0-0.2,0-0.3,0.1-0.5c0.1-0.2,0.1-0.5,0.2-0.8c0.2-0.9,0.2-1.8,0.2-2.6c-0.1-1.9-0.9-3.7-2.3-5c-1.7-1.4-3.7-2.3-5.8-2.8l-17.7,1.4
	L567.9,282.7z"/>
<path class="st0" d="M596.8,317.9c0,1.8-0.4,3.6-1.2,5.2c-0.7,1.5-1.7,2.8-3,3.8c-1.3,1.1-2.9,1.8-4.5,2.3c-3.8,1-7.9,0.9-11.6-0.3
	c-1.6-0.6-3.1-1.4-4.4-2.6c-1.2-1.1-2.1-2.5-2.7-4c-0.6-1.7-0.9-3.5-0.8-5.3c0-1.8,0.4-3.6,1.1-5.2c0.7-1.5,1.7-2.8,3-3.8
	c1.3-1.1,2.9-1.9,4.5-2.3c1.9-0.5,3.9-0.8,5.8-0.7c2,0,3.9,0.4,5.8,1c1.6,0.6,3.1,1.4,4.4,2.6c1.2,1.1,2.1,2.5,2.7,4
	C596.6,314.3,596.9,316.1,596.8,317.9z M570.7,317.1c-0.1,1.5,0.2,2.9,0.7,4.3c0.5,1.2,1.3,2.3,2.3,3.1c1.1,0.9,2.4,1.5,3.7,1.9
	c1.6,0.5,3.3,0.7,4.9,0.8c1.7,0.1,3.4-0.1,5-0.5c1.4-0.3,2.7-0.9,3.9-1.7c1.1-0.8,1.9-1.8,2.5-3c1.2-2.7,1.3-5.8,0.3-8.5
	c-0.5-1.2-1.3-2.3-2.3-3.1c-1.1-0.9-2.4-1.6-3.8-2c-1.6-0.5-3.3-0.7-4.9-0.8c-1.7-0.1-3.4,0.1-5,0.5c-1.4,0.3-2.7,0.9-3.8,1.7
	c-1.1,0.8-1.9,1.8-2.5,3C571.1,314.2,570.7,315.6,570.7,317.1L570.7,317.1z"/>
<path class="st0" d="M567.7,338.4l27.1,4.1l-0.2,1.4c0,0.4-0.4,0.7-0.8,0.7c0,0,0,0,0,0l-4.1-0.4c1.3,1.4,2.4,3.1,3.1,4.9
	c0.7,1.8,0.9,3.8,0.6,5.7c-0.2,1.3-0.6,2.6-1.3,3.8c-0.6,1-1.4,1.9-2.5,2.5c-1.1,0.6-2.2,1-3.5,1.2c-1.4,0.2-2.9,0.2-4.3-0.1
	l-17.3-2.6l0.4-2.6l17.3,2.6c2.1,0.4,4.3,0.1,6.2-0.8c1.7-1.1,2.8-3,3-5c0.3-1.7,0.1-3.5-0.6-5.2c-0.7-1.7-1.8-3.3-3.2-4.6l-20.3-3
	L567.7,338.4z"/>
<path class="st0" d="M581.5,390.4c-0.2-0.2-0.3-0.4-0.2-0.7c0.1-0.3,0.3-0.5,0.5-0.7c0.4-0.3,0.7-0.6,1.1-1c0.5-0.5,0.9-1.1,1.2-1.7
	c0.5-0.8,0.8-1.7,1-2.6c0.2-0.9,0.3-1.8,0.3-2.7c-0.1-0.8-0.2-1.6-0.6-2.3c-0.3-0.7-0.7-1.2-1.2-1.7c-0.5-0.5-1.1-0.8-1.8-1
	c-0.7-0.2-1.5-0.2-2.2,0.1c-0.7,0.3-1.3,0.7-1.8,1.3c-0.6,0.6-1.2,1.3-1.6,2.1c-0.5,0.8-1,1.6-1.6,2.5s-1.1,1.7-1.7,2.5
	c-0.5,0.7-1.2,1.4-1.9,2c-0.7,0.5-1.5,0.9-2.3,1.2c-1,0.2-1.9,0.2-2.9-0.1c-1.1-0.3-2.1-0.8-3-1.5c-0.9-0.7-1.6-1.5-2.1-2.5
	c-0.6-1-0.9-2.2-1-3.4c-0.1-1.4,0-2.8,0.4-4.1c0.4-1.7,1.1-3.2,2.2-4.6c0.9-1.2,2-2.2,3.3-3l0.7,0.9c0.1,0.1,0.2,0.2,0.2,0.4
	c0,0.2,0,0.3,0,0.5c-0.1,0.3-0.4,0.6-0.7,0.7c-0.4,0.3-0.9,0.7-1.3,1.1c-0.5,0.5-1,1.1-1.5,1.8c-0.6,0.9-1,1.9-1.2,2.9
	c-0.3,1-0.4,2-0.3,3.1c0.1,0.9,0.3,1.7,0.7,2.5c0.4,0.7,0.9,1.3,1.5,1.8c0.6,0.5,1.4,0.8,2.2,1c0.8,0.2,1.6,0.2,2.4,0
	c0.7-0.3,1.4-0.7,1.9-1.3c0.6-0.6,1.2-1.3,1.7-2.1c0.5-0.8,1-1.6,1.6-2.5s1.1-1.7,1.7-2.5c0.5-0.7,1.2-1.4,1.9-2
	c0.7-0.6,1.5-1,2.3-1.2c1-0.2,2-0.2,2.9,0.1c0.9,0.3,1.8,0.7,2.5,1.3c0.8,0.6,1.4,1.4,1.8,2.4c0.5,1,0.8,2.1,0.8,3.2
	c0.1,1.3,0,2.6-0.4,3.8c-0.4,1.5-1,2.9-1.8,4.1c-0.8,1.1-1.9,2.1-3.1,2.9L581.5,390.4z"/>
<path class="st0" d="M541.7,403l33.8,15.1l-0.6,1.3c-0.1,0.2-0.2,0.3-0.4,0.5c-0.2,0.1-0.4,0.1-0.6,0l-4-1.5c1,1.7,1.6,3.5,1.9,5.5
	c0.2,1.9-0.1,3.8-0.9,5.6c-1.1,2.8-3.5,5-6.4,5.8c-2.9,0.8-6.5,0.2-10.7-1.7c-1.7-0.8-3.3-1.8-4.8-3c-1.3-1.1-2.4-2.4-3.2-3.9
	c-0.8-1.4-1.2-3-1.2-4.6c0-1.8,0.3-3.5,1.1-5.1c0.6-1.5,1.6-2.9,2.9-4c1.2-1,2.7-1.7,4.2-2l-12.2-5.5L541.7,403z M569.4,427.9
	c0.7-1.6,1-3.4,0.7-5.1c-0.3-1.8-1-3.6-2-5.2l-13.1-5.8c-4.7,0.8-8.1,4.9-8,9.6c0,1.3,0.4,2.6,1,3.8c0.7,1.2,1.6,2.3,2.8,3.2
	c1.3,1,2.7,1.9,4.3,2.6c3.7,1.7,6.8,2.2,9.1,1.6C566.5,432,568.5,430.3,569.4,427.9L569.4,427.9z"/>
<path class="st0" d="M555.6,458.6c-0.9,1.6-2.1,2.9-3.6,4c-1.3,1-2.8,1.6-4.5,1.9c-1.7,0.3-3.4,0.2-5.1-0.2c-3.8-1-7.3-3.1-10-6
	c-1.1-1.3-2-2.7-2.5-4.3c-0.5-1.6-0.7-3.2-0.4-4.8c0.6-3.6,2.5-6.8,5.4-9c1.3-1,2.8-1.6,4.5-1.9c1.7-0.3,3.4-0.2,5.1,0.2
	c3.8,1,7.3,3.1,10,6c1.1,1.3,2,2.8,2.5,4.4c0.5,1.6,0.6,3.2,0.4,4.8C557.2,455.4,556.6,457.1,555.6,458.6z M533.2,445.2
	c-0.8,1.2-1.3,2.6-1.5,4.1c-0.1,1.3,0,2.6,0.5,3.9c0.5,1.3,1.3,2.5,2.3,3.5c2.4,2.4,5.3,4.1,8.5,5.1c1.4,0.4,2.8,0.5,4.2,0.4
	c1.3-0.2,2.6-0.6,3.7-1.4c2.4-1.8,4-4.4,4.4-7.3c0.1-1.3,0-2.6-0.5-3.9c-0.5-1.3-1.3-2.5-2.3-3.5c-2.4-2.4-5.3-4.1-8.5-5.1
	c-1.4-0.4-2.8-0.5-4.2-0.4c-1.3,0.2-2.6,0.6-3.6,1.4C535,442.9,534,443.9,533.2,445.2z"/>
<path class="st0" d="M540.7,480.6l-13.8-10.7c-1.6-1.4-3.7-2.2-5.8-2.3c-2,0.1-3.9,1.2-5,2.9c-1.1,1.4-1.8,3-2,4.8
	c-0.2,1.9-0.1,3.8,0.4,5.6l16.2,12.6l-1.6,2.1l-21.6-16.8l0.9-1.1c0.2-0.3,0.6-0.5,0.9-0.3c0,0,0.1,0.1,0.1,0.1l3.4,2.3
	c-0.5-1.9-0.6-3.9-0.3-5.8c0.3-1.9,1.1-3.7,2.3-5.3c0.8-1.1,1.8-2,3-2.7c1-0.6,2.2-0.9,3.4-1c1.2,0,2.5,0.2,3.6,0.6
	c1.3,0.5,2.6,1.3,3.7,2.2l13.8,10.7L540.7,480.6z"/>
<path class="st0" d="M500.1,487l19.7,19l-1,1c-0.2,0.2-0.4,0.3-0.6,0.4c-0.2,0-0.5-0.1-0.6-0.3l-4.3-3.9c0.9,1.9,1.4,4,1.3,6.1
	c-0.1,2-1,3.8-2.4,5.2c-0.5,0.6-1.1,1.1-1.8,1.5c-0.6,0.4-1.2,0.7-1.9,0.9l-1.1-1.5c-0.2-0.2-0.1-0.5,0.1-0.7
	c0.1-0.1,0.3-0.2,0.4-0.3c0.2-0.1,0.4-0.2,0.7-0.4c0.3-0.2,0.6-0.4,1-0.6c0.4-0.3,0.8-0.6,1.1-1c1.4-1.3,2.1-3.1,2.1-5
	c-0.1-2.2-0.7-4.3-1.8-6.2l-12.8-12.3L500.1,487z"/>
<path class="st0" d="M488.1,535.7l-10.6-13.9c-1.2-1.8-3-3.1-5-3.7c-2-0.4-4.1,0.2-5.6,1.5c-1.4,1.1-2.5,2.5-3.2,4.1
	c-0.7,1.8-1,3.6-1,5.5l12.4,16.4l-2.1,1.6l-16.6-21.8l1.1-0.9c0.3-0.3,0.7-0.3,1,0c0,0,0.1,0.1,0.1,0.1l2.7,3.1
	c0-1.9,0.4-3.9,1.2-5.7c0.8-1.8,2-3.3,3.6-4.5c1.1-0.9,2.3-1.5,3.6-1.8c1.1-0.3,2.4-0.3,3.5-0.1c1.2,0.3,2.3,0.8,3.3,1.6
	c1.1,0.9,2.2,1.9,3,3.1l10.6,13.9L488.1,535.7z"/>
<path class="st0" d="M447.4,531.4l13.8,23.6l-1.2,0.7c-0.3,0.2-0.8,0.2-1-0.2c0,0,0,0,0,0l-2.3-3.4c-0.3,1.9-0.9,3.8-1.8,5.5
	c-1,1.7-2.4,3.1-4.1,4c-1.1,0.7-2.4,1.2-3.8,1.4c-1.2,0.2-2.4,0.1-3.5-0.3c-1.2-0.4-2.2-1.1-3.1-2c-1.1-1-2-2.1-2.7-3.4l-8.8-15.1
	l2.3-1.3l8.8,15.1c1,1.9,2.6,3.5,4.6,4.3c1.9,0.6,4.1,0.3,5.8-0.8c1.5-0.9,2.8-2.2,3.6-3.7c0.9-1.7,1.5-3.5,1.6-5.4l-10.4-17.6
	L447.4,531.4z"/>
<path class="st0" d="M421.3,576.4c-1.3,0.6-2.8,0.9-4.2,1c-1.4,0-2.8-0.2-4-0.8c-1.4-0.6-2.6-1.5-3.6-2.5c-1.2-1.3-2.1-2.8-2.8-4.4
	c-0.1-0.3-0.2-0.5-0.2-0.8c0.1-0.2,0.2-0.4,0.4-0.4l18.1-7.9l-0.2-0.5c-0.7-1.7-1.7-3.3-2.8-4.7c-0.9-1.1-2.1-2.1-3.4-2.8
	c-1.2-0.6-2.5-0.9-3.9-0.9c-1.4,0-2.8,0.3-4.1,0.9c-1.1,0.5-2.2,1.1-3.1,1.8c-1.2,1-2.2,2.2-3,3.5c-0.1,0.3-0.4,0.6-0.6,0.8
	c-0.2,0.1-0.4,0.1-0.6,0l-1-0.5c0.2-0.7,0.6-1.5,1-2.1c0.5-0.8,1.1-1.5,1.7-2.1c0.7-0.7,1.5-1.3,2.3-1.9c0.8-0.6,1.7-1.1,2.7-1.5
	c1.6-0.7,3.3-1.1,5.1-1.2c1.6,0,3.3,0.3,4.8,1c1.6,0.8,3,1.8,4.2,3.2c1.4,1.6,2.5,3.4,3.3,5.3c0.8,1.7,1.2,3.5,1.4,5.3
	c0.2,1.7,0,3.3-0.5,4.9c-0.5,1.5-1.3,2.9-2.4,4.1C424.5,574.7,423,575.7,421.3,576.4z M420.5,574.6c1.2-0.5,2.3-1.2,3.2-2.1
	c0.8-0.8,1.5-1.8,1.9-2.9c0.4-1.1,0.6-2.3,0.6-3.5c0-1.4-0.2-2.7-0.6-4l-16.5,7.2c0.5,1.2,1.2,2.4,2.1,3.4c0.8,0.9,1.7,1.5,2.7,2
	c1,0.5,2.1,0.7,3.1,0.7C418.3,575.3,419.4,575.1,420.5,574.6L420.5,574.6z"/>
<path class="st0" d="M367.4,589.7c0.1-0.1,0.1-0.2,0.2-0.3c0.1-0.1,0.2-0.2,0.3-0.2c0.3,0,0.6,0,0.8,0.2c0.5,0.2,0.9,0.3,1.4,0.5
	c0.7,0.2,1.4,0.3,2.1,0.3c2.4,0,4.8-0.8,6.8-2.2c1-0.8,1.8-1.9,2.4-3.1c0.6-1.3,0.9-2.7,0.9-4.2c0-1.7-0.2-3.4-0.6-5
	c-0.4-1.7-1.1-3.3-1.9-4.8c-0.7-1.2-1.7-2.3-2.8-3.2c-1-0.8-2.2-1.3-3.5-1.5c-1.3-0.2-2.7-0.2-4,0.2c-1.1,0.3-2.1,0.7-3.1,1.3
	c-0.7,0.4-1.3,1-1.9,1.5c-0.4,0.4-0.8,0.9-1.1,1.3c-0.2,0.4-0.5,0.6-0.7,0.7c-0.2,0.1-0.4,0-0.6-0.1l-0.9-0.7
	c0.3-0.7,0.7-1.3,1.2-1.9c0.5-0.6,1.1-1.2,1.8-1.7c0.7-0.6,1.5-1,2.4-1.4c0.9-0.4,1.8-0.8,2.8-1c1.6-0.4,3.2-0.5,4.9-0.3
	c1.5,0.3,3,0.8,4.3,1.7c1.4,1,2.5,2.2,3.4,3.7c1.1,1.7,1.8,3.6,2.3,5.5c0.5,1.9,0.7,3.8,0.6,5.8c-0.1,1.7-0.5,3.4-1.2,4.9
	c-0.7,1.5-1.7,2.8-3,3.8c-1.4,1.1-3.1,1.9-4.9,2.3c-1.6,0.4-3.2,0.5-4.8,0.3c-1.4-0.2-2.8-0.6-4.1-1.3L367.4,589.7z"/>
<path class="st0" d="M346.1,597.5c-1.8,0.3-3.6,0.2-5.4-0.3c-1.6-0.4-3-1.2-4.3-2.3c-1.3-1.1-2.3-2.5-3-4.1
	c-0.8-1.8-1.4-3.7-1.6-5.7c-0.3-1.9-0.3-3.9,0-5.9c0.3-1.7,0.9-3.3,1.8-4.7c0.9-1.4,2.1-2.5,3.5-3.3c3.2-1.8,6.9-2.3,10.4-1.5
	c1.6,0.4,3,1.2,4.3,2.3c1.3,1.1,2.3,2.5,3,4c1.6,3.6,2.2,7.6,1.6,11.5c-0.3,1.7-0.9,3.3-1.8,4.7c-0.9,1.4-2.1,2.5-3.5,3.4
	C349.6,596.6,347.9,597.2,346.1,597.5z M342.6,571.6c-1.5,0.2-2.9,0.7-4.1,1.4c-1.1,0.7-2,1.7-2.7,2.8c-0.7,1.2-1.1,2.6-1.3,4
	c-0.2,1.7-0.2,3.3,0.1,5c0.2,1.7,0.6,3.3,1.3,4.8c0.5,1.3,1.3,2.5,2.3,3.5c0.9,0.9,2.1,1.6,3.4,2c1.4,0.4,2.9,0.5,4.4,0.3
	c1.5-0.2,2.9-0.7,4.1-1.4c1.1-0.7,2-1.7,2.7-2.8c0.7-1.2,1.1-2.6,1.3-4c0.4-3.3-0.1-6.7-1.4-9.8c-0.5-1.3-1.3-2.5-2.3-3.5
	c-0.9-0.9-2.1-1.6-3.4-2C345.5,571.5,344,571.4,342.6,571.6L342.6,571.6z"/>
<path class="st0" d="M321.1,572.2l0.6,27.4h-1.4c-0.4,0-0.8-0.3-0.8-0.7l-0.3-4.1c-1.2,1.6-2.6,2.9-4.3,3.9c-1.7,1-3.6,1.5-5.5,1.5
	c-1.4,0.1-2.7-0.2-4-0.6c-1.1-0.4-2.1-1.1-2.9-2c-0.8-0.9-1.4-2-1.8-3.2c-0.4-1.4-0.7-2.8-0.7-4.3l-0.4-17.5l2.6-0.1l0.4,17.5
	c-0.1,2.2,0.6,4.3,1.9,6c1.4,1.5,3.4,2.3,5.4,2.1c1.8,0,3.5-0.5,5-1.5c1.6-1,3-2.4,4-3.9l-0.4-20.5L321.1,572.2z"/>
<path class="st0" d="M269.1,594l0.3-0.2c0.1-0.1,0.2-0.1,0.4-0.1c0.3,0.1,0.5,0.2,0.7,0.4c0.4,0.3,0.8,0.6,1.2,0.9
	c0.6,0.4,1.2,0.7,1.9,1c2.3,0.8,4.8,0.9,7.1,0.2c1.2-0.4,2.4-1.2,3.3-2.1c1-1,1.7-2.3,2.2-3.6c0.6-1.6,1-3.2,1.1-4.9
	c0.2-1.7,0.1-3.5-0.2-5.2c-0.3-1.4-0.8-2.7-1.6-3.9c-0.7-1.1-1.7-2-2.8-2.6c-1.2-0.7-2.5-1-3.8-1.2c-1.1-0.1-2.2-0.1-3.3,0.2
	c-0.8,0.2-1.6,0.5-2.3,0.8c-0.5,0.3-1,0.6-1.5,0.9c-0.2,0.2-0.5,0.4-0.9,0.4c-0.2,0-0.4-0.1-0.5-0.3l-0.6-0.9c0.5-0.5,1.1-1,1.7-1.4
	c0.7-0.4,1.5-0.8,2.3-1c0.9-0.3,1.8-0.5,2.7-0.6c1-0.1,2-0.1,3,0c1.6,0.1,3.2,0.6,4.7,1.4c1.4,0.8,2.5,1.8,3.4,3.1
	c1,1.4,1.6,3,2,4.6c0.8,3.9,0.4,7.9-1,11.6c-0.7,1.6-1.6,3-2.8,4.2c-1.2,1.1-2.6,2-4.1,2.5c-1.7,0.6-3.5,0.7-5.3,0.5
	c-1.6-0.1-3.2-0.6-4.6-1.3c-1.3-0.7-2.4-1.5-3.4-2.6L269.1,594z"/>
<path class="st0" d="M246.6,594.2c-1.4-0.3-2.8-0.8-4-1.6c-1.2-0.8-2.1-1.8-2.9-3c-0.8-1.3-1.3-2.7-1.5-4.1
	c-0.2-1.7-0.2-3.5,0.2-5.2c0-0.3,0.1-0.6,0.3-0.8c0.2-0.1,0.4-0.2,0.6-0.1l19.4,4l0.1-0.5c0.4-1.8,0.5-3.6,0.4-5.5
	c-0.1-1.5-0.5-2.9-1.2-4.2c-0.6-1.2-1.5-2.2-2.6-3c-1.2-0.8-2.5-1.4-3.9-1.6c-1.2-0.3-2.4-0.3-3.6-0.3c-0.9,0.1-1.8,0.2-2.7,0.5
	c-0.6,0.2-1.2,0.4-1.8,0.7c-0.3,0.2-0.6,0.3-1,0.3c-0.2,0-0.4-0.2-0.5-0.4l-0.5-1c0.6-0.5,1.3-0.9,2-1.2c0.8-0.3,1.7-0.6,2.6-0.7
	c1-0.2,2-0.2,3-0.2c1,0,2.1,0.1,3.1,0.3c1.7,0.3,3.4,1,4.8,2c1.4,0.9,2.5,2.2,3.3,3.6c0.9,1.5,1.4,3.2,1.6,5
	c0.2,2.1,0.1,4.2-0.4,6.3c-0.4,1.8-1,3.5-1.9,5.2c-0.8,1.4-1.9,2.7-3.2,3.7c-1.3,1-2.8,1.7-4.4,2
	C250.2,594.6,248.4,594.6,246.6,594.2z M247,592.3c1.3,0.3,2.6,0.3,3.8,0.1c1.2-0.2,2.3-0.6,3.2-1.3c1-0.7,1.8-1.5,2.5-2.5
	c0.8-1.1,1.4-2.3,1.8-3.6l-17.6-3.6c-0.3,1.3-0.3,2.7-0.2,4c0.1,1.1,0.5,2.2,1.1,3.2c0.6,0.9,1.3,1.7,2.2,2.3
	C244.7,591.7,245.8,592.1,247,592.3L247,592.3z"/>
<path class="st0" d="M235.9,553.3l-11.6,35.2l-1.4-0.5c-0.2-0.1-0.4-0.2-0.5-0.3c-0.1-0.2-0.1-0.4-0.1-0.6l1.1-4.1
	c-1.6,1.1-3.4,2-5.3,2.4c-1.9,0.4-3.8,0.3-5.6-0.3c-2.9-0.8-5.3-2.9-6.4-5.8c-1-2.8-0.8-6.4,0.6-10.8c0.6-1.8,1.4-3.5,2.5-5.1
	c1-1.4,2.2-2.6,3.6-3.6c1.4-0.9,2.9-1.5,4.5-1.7c1.7-0.2,3.5,0,5.2,0.5c1.6,0.5,3.1,1.3,4.3,2.5c1.1,1.1,1.9,2.5,2.4,4l4.2-12.7
	L235.9,553.3z M213.9,583.3c1.7,0.6,3.4,0.6,5.1,0.2c1.8-0.5,3.5-1.3,5-2.5l4.5-13.6c-0.4-1.6-1.1-3.1-2.3-4.2
	c-1.1-1.1-2.4-1.8-3.8-2.3c-1.4-0.5-2.8-0.7-4.3-0.5c-1.3,0.2-2.6,0.7-3.7,1.4c-1.2,0.8-2.2,1.9-2.9,3.1c-0.9,1.4-1.6,2.9-2.1,4.5
	c-1.3,3.9-1.5,6.9-0.7,9.2C209.6,580.9,211.5,582.6,213.9,583.3L213.9,583.3z"/>
<path class="st0" d="M196.5,548.3c1.5,0.6,2.7,1.7,3.3,3.2c0.5,1.7,0.3,3.5-0.5,5l-7.6,17.1l3.6,1.6c0.2,0.1,0.3,0.2,0.4,0.4
	c0.1,0.2,0.1,0.3,0,0.5l-0.4,0.9l-4.4-1.6l-4.6,8.7c-0.1,0.1-0.2,0.3-0.4,0.3c-0.2,0.1-0.3,0.1-0.5,0l-1.1-0.5l4.3-9.5l-7.9-3.5
	l0.8-1.8l7.9,3.5l7.6-16.9c0.3-0.6,0.5-1.2,0.5-1.9c0.1-0.5,0-1-0.2-1.5c-0.2-0.5-0.4-0.9-0.8-1.2c-0.8-0.7-1.8-1.2-2.9-1.3
	c-0.5,0-0.9,0-1.4,0.1c-0.3,0.1-0.7,0.1-1,0.2c-0.2,0.1-0.4,0.1-0.6,0c-0.2-0.1-0.3-0.3-0.3-0.4l-0.2-1.3c1-0.4,2.1-0.6,3.2-0.6
	C194.3,547.6,195.5,547.9,196.5,548.3z"/>
<path class="st0" d="M161.8,572.6c0.1-0.3,0.4-0.5,0.6-0.7c0.3-0.2,0.5-0.3,0.8-0.4c0.3-0.1,0.6-0.1,0.9-0.1c0.3,0,0.6,0.1,0.9,0.3
	c0.3,0.1,0.5,0.4,0.7,0.6c0.2,0.2,0.3,0.5,0.4,0.8c0.1,0.3,0.1,0.6,0.1,0.9c0,0.3-0.1,0.6-0.3,0.9c-0.2,0.3-0.4,0.5-0.6,0.7
	c-0.5,0.4-1.1,0.6-1.8,0.5c-0.3,0-0.6-0.1-0.9-0.3c-0.3-0.2-0.5-0.4-0.7-0.6c-0.4-0.5-0.6-1.1-0.5-1.8
	C161.6,573.2,161.7,572.9,161.8,572.6z M167.3,564.8l12.9-24.1l2.3,1.2L169.6,566L167.3,564.8z"/>
<path class="st0" d="M145.7,552.4c-1.5-1-2.8-2.2-3.9-3.7c-0.9-1.4-1.5-2.9-1.7-4.5c-0.2-1.7-0.1-3.4,0.4-5c0.6-1.9,1.4-3.7,2.5-5.3
	c1.1-1.7,2.4-3.1,3.9-4.4c1.3-1.1,2.8-1.9,4.5-2.4c1.6-0.4,3.2-0.5,4.8-0.2c3.6,0.8,6.7,2.8,8.8,5.8c0.9,1.4,1.5,2.9,1.7,4.5
	c0.2,1.7,0.1,3.4-0.4,5c-1.1,3.8-3.4,7.2-6.4,9.7c-1.3,1.1-2.8,1.9-4.5,2.4c-1.6,0.4-3.2,0.5-4.9,0.2
	C148.9,554.1,147.2,553.4,145.7,552.4z M160.1,530.6c-1.2-0.8-2.6-1.4-4-1.7c-1.3-0.2-2.6-0.1-3.9,0.3c-1.3,0.5-2.6,1.2-3.6,2.2
	c-2.5,2.3-4.3,5.1-5.4,8.3c-0.5,1.3-0.7,2.8-0.6,4.2c0.1,1.3,0.5,2.6,1.2,3.7c0.8,1.2,1.9,2.3,3.1,3.1c1.2,0.8,2.6,1.4,4,1.6
	c1.3,0.2,2.6,0.1,3.9-0.4c1.3-0.5,2.6-1.2,3.6-2.2c1.3-1.1,2.3-2.4,3.2-3.8c0.9-1.4,1.7-2.9,2.2-4.5c0.5-1.3,0.6-2.8,0.5-4.2
	c-0.1-1.3-0.5-2.6-1.2-3.7C162.4,532.4,161.3,531.4,160.1,530.6z"/>
<path class="st0" d="M143.6,516.9l-17.7,20.9l-1.1-0.9c-0.3-0.2-0.4-0.7-0.2-1c0,0,0,0,0,0l2.5-3.3c-1.9,0.4-3.9,0.4-5.8,0.1
	c-1.9-0.4-3.7-1.2-5.2-2.5c-1.1-0.9-1.9-1.9-2.6-3.1c-0.6-1.1-0.8-2.2-0.8-3.4c0-1.2,0.3-2.5,0.8-3.6c0.6-1.3,1.4-2.5,2.3-3.6
	l11.3-13.3l2,1.7L117.9,518c-1.5,1.6-2.4,3.6-2.6,5.7c0,2,1,3.9,2.7,5.2c1.3,1.1,3,1.9,4.7,2.2c1.9,0.3,3.8,0.2,5.6-0.2l13.3-15.7
	L143.6,516.9z"/>
<path class="st0" d="M110.6,486.3L79.9,512l-1.7-2l13.3-11.1c-1.9,0-3.8-0.3-5.6-0.9c-1.8-0.7-3.4-1.8-4.6-3.3c-0.9-1-1.6-2.2-2-3.5
	c-0.4-1.1-0.5-2.3-0.2-3.5c0.2-1.2,0.7-2.4,1.4-3.4c0.8-1.2,1.8-2.3,2.9-3.2l13.4-11.2l1.7,2L85.1,483c-1.7,1.3-3,3.1-3.5,5.2
	c-0.3,2,0.4,4.1,1.8,5.5c1.1,1.4,2.6,2.4,4.3,2.9c1.8,0.6,3.7,0.8,5.6,0.7l15.7-13.2L110.6,486.3z"/>
<path class="st0" d="M66.7,474.8l14.7-9.6c1.9-1.1,3.3-2.8,4.1-4.8c0.5-2,0.1-4.1-1.1-5.7c-1-1.5-2.3-2.7-3.9-3.4
	c-1.7-0.8-3.6-1.3-5.5-1.4l-17.2,11.2l-1.4-2.2l22.9-15l0.8,1.2c0.3,0.3,0.2,0.7,0,1c0,0-0.1,0.1-0.1,0.1l-3.3,2.4
	c1.9,0.2,3.8,0.7,5.6,1.6c1.7,0.9,3.2,2.2,4.2,3.9c0.8,1.1,1.3,2.4,1.6,3.8c0.2,1.2,0.2,2.4-0.2,3.5c-0.4,1.2-1,2.3-1.8,3.2
	c-0.9,1.1-2.1,2.1-3.3,2.8L68.1,477L66.7,474.8z"/>
<path class="st0" d="M73.7,434.9l-24.9,11.4l-0.6-1.3c-0.2-0.4-0.1-0.8,0.3-1l3.5-1.9c-0.9-0.2-1.7-0.4-2.6-0.7
	c-0.8-0.3-1.6-0.6-2.3-1.1c-0.7-0.4-1.3-1-1.9-1.6c-0.6-0.6-1-1.3-1.4-2.1c-0.8-1.6-1-3.4-0.4-5.1c0.7-1.7,1.9-3.2,3.4-4.2
	c-1.1,0.2-2.2,0.2-3.3,0c-1-0.2-1.9-0.5-2.7-1c-0.8-0.5-1.5-1.1-2.2-1.8c-0.6-0.7-1.1-1.5-1.5-2.4c-0.5-1.1-0.9-2.4-0.9-3.6
	c0-1.1,0.2-2.3,0.7-3.3c0.5-1.1,1.3-2.1,2.2-2.9c1.1-1,2.4-1.8,3.7-2.4l15.9-7.3l1.1,2.4L44,412.4c-2,0.8-3.8,2.2-4.8,4.1
	c-0.8,1.7-0.7,3.7,0.2,5.4c0.4,0.9,1,1.6,1.7,2.3c0.7,0.6,1.5,1.1,2.4,1.4c1,0.3,2,0.5,3,0.4c1.2-0.1,2.4-0.5,3.5-1l15.9-7.3
	l1.1,2.4L51,427.3c-2,0.8-3.7,2.2-4.9,4c-0.8,1.6-0.8,3.5,0,5.1c0.6,1.4,1.6,2.5,2.9,3.2c1.5,0.8,3.1,1.3,4.8,1.5l18.8-8.6
	L73.7,434.9z"/>
<path class="st0" d="M50.9,376.3c0.2,0.5,0,1-0.4,1.2l-3.2,1.4c0.9,0.5,1.8,1,2.5,1.6c0.8,0.5,1.5,1.1,2.1,1.8
	c0.6,0.7,1.2,1.4,1.6,2.2c0.5,0.9,0.9,1.9,1.2,2.9c0.3,0.9,0.4,1.8,0.4,2.7c0,0.9-0.2,1.8-0.5,2.6c-0.4,0.8-0.9,1.6-1.6,2.2
	c-0.8,0.7-1.8,1.2-2.9,1.5c-1.1,0.3-2.3,0.3-3.4,0c-1.3-0.4-2.4-1.2-3.4-2.2c-1.3-1.4-2.4-3-3.2-4.7c-1.2-2.4-2.2-4.9-3-7.4
	l-2.7,0.8c-2,0.5-3.8,1.6-5.1,3.2c-1,1.6-1.2,3.5-0.6,5.2c0.3,1.1,0.8,2.1,1.5,3.1c0.5,0.7,1.1,1.3,1.8,1.9c0.5,0.4,1,0.8,1.6,1.2
	c0.4,0.2,0.7,0.5,0.8,0.8c0.1,0.3,0,0.7-0.2,0.9l-0.6,0.7c-1.7-0.9-3.1-2-4.4-3.4c-1.2-1.4-2.1-3-2.6-4.8c-0.4-1.3-0.5-2.6-0.4-3.9
	c0.1-1.1,0.5-2.2,1.1-3.2c0.7-1,1.5-1.8,2.6-2.5c1.2-0.8,2.5-1.3,3.8-1.7l17.1-5.1L50.9,376.3z M52.6,387.3c-0.3-1-0.7-1.9-1.2-2.7
	c-0.5-0.8-1-1.5-1.6-2.1c-0.6-0.6-1.3-1.2-2-1.6c-0.7-0.5-1.5-0.9-2.3-1.3l-6.8,2c0.7,2.1,1.5,4.2,2.5,6.3c0.7,1.5,1.6,2.8,2.6,4.1
	c0.7,0.9,1.6,1.6,2.7,2c0.9,0.3,1.8,0.4,2.7,0.1c0.8-0.2,1.5-0.6,2.2-1.1c0.5-0.4,0.9-1,1.2-1.6c0.3-0.6,0.4-1.3,0.4-1.9
	C52.9,388.6,52.8,387.9,52.6,387.3L52.6,387.3z"/>
<path class="st0" d="M11.3,368c0.3-0.1,0.6-0.1,0.9,0c0.3,0.1,0.6,0.2,0.9,0.4c0.3,0.2,0.5,0.4,0.7,0.6c0.2,0.3,0.3,0.6,0.4,0.9
	c0.1,0.6,0,1.3-0.4,1.8c-0.2,0.3-0.4,0.5-0.6,0.7c-0.3,0.2-0.5,0.3-0.9,0.4c-0.3,0.1-0.7,0.1-1,0c-0.3-0.1-0.6-0.2-0.9-0.4
	c-0.3-0.2-0.5-0.4-0.7-0.6c-0.2-0.3-0.3-0.6-0.4-0.9c-0.1-0.3-0.1-0.6,0-1c0.1-0.3,0.2-0.6,0.4-0.9c0.2-0.3,0.4-0.5,0.7-0.7
	C10.7,368.2,11,368.1,11.3,368z M20.8,367.2l26.8-5.6l0.5,2.5l-26.8,5.6L20.8,367.2z"/>
<path class="st0" d="M45.3,349.9L18.1,353l-0.2-1.4c-0.1-0.4,0.2-0.8,0.6-0.9c0,0,0,0,0,0l4.1-0.7c-1.7-1-3.1-2.3-4.3-3.9
	c-1.2-1.6-1.9-3.4-2.1-5.3c-0.2-1.3-0.1-2.7,0.3-4c0.3-1.1,0.9-2.2,1.7-3.1c0.8-0.9,1.9-1.6,3-2.1c1.3-0.6,2.7-0.9,4.2-1.1l17.4-2
	l0.3,2.6l-17.4,2c-2.1,0.1-4.1,0.9-5.7,2.4c-1.4,1.5-2,3.6-1.6,5.6c0.2,1.8,0.9,3.4,2,4.8c1.2,1.5,2.6,2.7,4.3,3.7l20.3-2.4
	L45.3,349.9z"/>
<path class="st0" d="M14.6,307.7c0-1.5,0.3-2.9,0.9-4.3c0.5-1.3,1.3-2.4,2.4-3.4c1.1-1,2.4-1.7,3.8-2.2c1.7-0.5,3.4-0.8,5.1-0.8
	c0.3,0,0.6,0,0.8,0.2c0.2,0.1,0.2,0.4,0.2,0.6l-0.2,19.7H28c1.8,0,3.7-0.2,5.4-0.6c1.4-0.4,2.8-1.1,3.9-2c1-0.8,1.9-1.9,2.4-3.2
	c0.6-1.3,0.9-2.7,0.8-4.2c0-1.2-0.1-2.4-0.4-3.6c-0.2-0.9-0.6-1.7-1-2.6c-0.3-0.6-0.6-1.1-1-1.6c-0.2-0.2-0.4-0.6-0.5-0.9
	c0-0.2,0.1-0.4,0.3-0.5l0.9-0.7c0.6,0.5,1.1,1.1,1.5,1.8c0.5,0.8,0.9,1.6,1.2,2.4c0.3,0.9,0.6,1.9,0.8,2.9c0.2,1,0.3,2,0.3,3.1
	c0,1.8-0.3,3.5-1,5.1c-0.7,1.5-1.6,2.9-2.9,3.9c-1.4,1.1-2.9,2-4.6,2.5c-2,0.6-4.1,0.9-6.2,0.8c-1.8,0-3.7-0.3-5.4-0.9
	c-1.6-0.5-3-1.4-4.3-2.5c-1.2-1.1-2.1-2.4-2.8-3.9C14.8,311.2,14.5,309.4,14.6,307.7z M16.6,307.7c0,1.3,0.2,2.6,0.6,3.8
	c0.4,1.1,1,2.1,1.8,2.9c0.8,0.8,1.8,1.5,2.9,2c1.2,0.5,2.5,0.9,3.9,1l0.2-18c-1.3,0-2.7,0.2-4,0.6c-1.1,0.3-2.1,0.9-3,1.7
	c-0.8,0.7-1.5,1.6-1.9,2.6C16.7,305.3,16.5,306.5,16.6,307.7L16.6,307.7z"/>
<path class="st0" d="M47.6,255.7c0,0.4-0.4,0.7-0.8,0.7c0,0,0,0-0.1,0l-4.3-0.4c1.4,1.4,2.4,3,3.2,4.8c0.7,1.8,0.9,3.7,0.5,5.6
	c-0.4,3-2.1,5.7-4.8,7.2c-2.6,1.5-6.2,1.8-10.8,1c-1.9-0.3-3.7-0.9-5.4-1.7c-1.5-0.7-2.9-1.7-4.1-3c-1.1-1.2-1.9-2.6-2.3-4.2
	c-0.5-1.7-0.6-3.5-0.2-5.2c0.2-1.6,0.9-3.2,1.8-4.6c0.9-1.3,2.2-2.3,3.6-3l-16-2.7l0.4-2.6l39.4,6.7L47.6,255.7z M44.2,265.3
	c0.3-1.7,0.1-3.5-0.5-5.1c-0.8-1.7-1.8-3.3-3.2-4.5l-14.2-2.4c-1.5,0.6-2.8,1.6-3.8,2.9c-0.9,1.2-1.5,2.6-1.7,4.1
	c-0.3,1.4-0.2,2.9,0.1,4.3c0.4,1.3,1,2.4,1.9,3.4c1,1,2.2,1.9,3.5,2.5c1.5,0.7,3.1,1.2,4.7,1.5c4,0.7,7.1,0.4,9.2-0.7
	C42.4,270,43.9,267.8,44.2,265.3z"/>
<path class="st0" d="M24.7,233.7l16.8,5c2,0.7,4.3,0.7,6.3,0c1.9-0.9,3.2-2.5,3.6-4.5c0.5-1.7,0.6-3.5,0.1-5.2
	c-0.5-1.8-1.3-3.5-2.4-5l-19.7-5.9l0.8-2.5l26.2,7.9l-0.4,1.4c0,0.4-0.4,0.6-0.8,0.6c-0.1,0-0.1,0-0.1,0l-4-0.9
	c1.1,1.6,1.9,3.4,2.4,5.3c0.4,1.9,0.4,3.9-0.2,5.7c-0.4,1.3-1,2.5-1.8,3.6c-0.7,0.9-1.7,1.7-2.8,2.1c-1.1,0.5-2.4,0.7-3.6,0.7
	c-1.5,0-2.9-0.2-4.3-0.7l-16.8-5L24.7,233.7z"/>
<path class="st0" d="M65.3,200.9l-24.5-12.2l0.6-1.3c0.1-0.4,0.6-0.6,0.9-0.5c0,0,0,0,0.1,0l3.8,1.6c-0.8-1.8-1.3-3.7-1.5-5.6
	c-0.1-1.9,0.3-3.9,1.2-5.6c0.6-1.2,1.4-2.3,2.4-3.2c0.9-0.8,2-1.3,3.1-1.6c1.2-0.3,2.4-0.3,3.7-0.1c1.4,0.3,2.8,0.7,4.1,1.4
	l15.7,7.8l-1.2,2.3l-15.7-7.8c-1.9-1.1-4.1-1.5-6.2-1.1c-2,0.5-3.6,2-4.4,3.9c-0.8,1.6-1.1,3.3-1,5.1c0.2,1.9,0.7,3.7,1.6,5.4
	l18.4,9.2L65.3,200.9z"/>
<path class="st0" d="M58.3,156.1l14.6,9.6c1.7,1.3,3.8,1.9,6,1.9c2-0.3,3.8-1.5,4.8-3.3c1-1.5,1.5-3.2,1.6-4.9
	c0.1-1.9-0.2-3.8-0.9-5.6l-17.2-11.3l1.4-2.2l22.8,15.1l-0.8,1.2c-0.2,0.3-0.6,0.5-0.9,0.3c0,0-0.1,0-0.1-0.1l-3.5-2
	c0.6,1.9,0.9,3.8,0.7,5.8c-0.1,1.9-0.8,3.8-1.9,5.4c-0.7,1.2-1.7,2.2-2.8,2.9c-1,0.7-2.1,1.1-3.3,1.2c-1.2,0.1-2.5,0-3.7-0.4
	c-1.4-0.4-2.7-1.1-3.9-1.9l-14.6-9.6L58.3,156.1z"/>
<path class="st0" d="M97.7,146.6l-20.4-18.2l1-1.1c0.2-0.3,0.7-0.4,1-0.2c0,0,0,0,0,0l3.1,2.5c-0.2-0.9-0.4-1.7-0.4-2.6
	c-0.1-0.8,0-1.7,0.1-2.5c0.1-0.8,0.3-1.6,0.7-2.3c0.3-0.8,0.8-1.5,1.4-2.1c1.1-1.4,2.7-2.2,4.5-2.4c1.8-0.1,3.7,0.4,5.2,1.4
	c-0.6-0.9-1-1.9-1.3-3c-0.4-1.9-0.2-3.8,0.6-5.6c0.4-0.9,0.9-1.6,1.6-2.3c0.8-0.9,1.8-1.7,2.9-2.3c1-0.5,2.2-0.8,3.3-0.7
	c1.2,0,2.5,0.3,3.6,0.9c1.3,0.6,2.6,1.5,3.7,2.5l13,11.7l-1.7,1.9l-13-11.7c-1.5-1.6-3.5-2.5-5.7-2.8c-1.9,0-3.7,0.8-4.8,2.3
	c-0.6,0.7-1.1,1.5-1.4,2.4c-0.3,0.9-0.4,1.8-0.4,2.8c0.1,1,0.4,2,0.8,2.8c0.6,1.1,1.3,2,2.3,2.8l13,11.7l-1.7,2l-13-11.7
	c-1.5-1.5-3.5-2.5-5.6-2.9c-1.8-0.1-3.5,0.6-4.7,2c-1,1.1-1.6,2.5-1.8,4c-0.2,1.7,0,3.4,0.5,5l15.4,13.8L97.7,146.6z"/>
<path class="st0" d="M116.3,72.8l-0.1,9.2c0,0.2,0,0.4-0.1,0.6c-0.1,0.2-0.2,0.3-0.4,0.4l-1.2,1l-0.9-7.8c-0.1-0.3-0.1-0.6,0-0.9
	c0.1-0.3,0.4-0.6,0.6-0.8L116.3,72.8z M119,85.6c1.1-1,2.4-1.7,3.8-2.1c1.3-0.4,2.7-0.6,4.1-0.4c1.5,0.2,2.9,0.7,4.1,1.4
	c1.5,0.9,2.8,2,3.9,3.4c0.2,0.2,0.3,0.5,0.4,0.8c0,0.2-0.1,0.4-0.3,0.5l-15.1,12.7l0.3,0.4c1.1,1.4,2.5,2.7,4,3.7
	c1.2,0.8,2.6,1.4,4.1,1.7c1.3,0.3,2.7,0.2,4-0.2c1.4-0.4,2.6-1.1,3.7-2.1c0.9-0.8,1.8-1.7,2.4-2.7c0.5-0.8,0.9-1.6,1.3-2.4
	c0.2-0.6,0.4-1.2,0.6-1.8c0-0.3,0.2-0.7,0.4-0.9c0.2-0.1,0.4-0.2,0.6-0.1l1.1,0.2c0,0.8-0.1,1.6-0.4,2.3c-0.3,0.9-0.6,1.7-1.1,2.5
	c-0.5,0.9-1,1.7-1.7,2.5c-0.6,0.8-1.4,1.5-2.1,2.2c-1.3,1.1-2.9,2-4.5,2.5c-1.6,0.5-3.2,0.6-4.9,0.4c-1.7-0.3-3.4-0.9-4.9-1.8
	c-1.8-1.1-3.4-2.5-4.7-4.2c-1.2-1.4-2.2-3-2.9-4.7c-0.6-1.5-0.9-3.2-0.9-4.8c0-1.6,0.4-3.2,1.2-4.7C116.5,88.2,117.6,86.8,119,85.6z
	 M120.3,87.1c-1,0.8-1.8,1.8-2.5,2.9c-0.6,1-0.9,2.2-1,3.3c-0.1,1.2,0,2.4,0.4,3.5c0.4,1.3,1,2.5,1.7,3.6l13.8-11.6
	c-0.8-1-1.9-1.9-3-2.6c-1-0.6-2.1-1-3.2-1.2c-1.1-0.1-2.2,0-3.2,0.3C122.2,85.8,121.2,86.4,120.3,87.1L120.3,87.1z"/>
<path class="st0" d="M152.6,94.6L137.2,72l1.1-0.8c0.2-0.2,0.4-0.2,0.6-0.2c0.2,0.1,0.4,0.2,0.6,0.4l3.4,4.7c-0.5-2.1-0.5-4.2,0-6.3
	c0.5-1.9,1.8-3.5,3.4-4.6c0.6-0.4,1.3-0.8,2-1.1c0.7-0.2,1.4-0.4,2.1-0.5l0.7,1.7c0.1,0.2,0,0.5-0.2,0.7c-0.1,0.1-0.3,0.1-0.4,0.2
	c-0.2,0-0.5,0.1-0.8,0.2s-0.6,0.2-1.1,0.4c-0.5,0.2-0.9,0.5-1.3,0.8c-1.6,1-2.7,2.6-3.1,4.5c-0.4,2.1-0.2,4.3,0.4,6.4l10,14.7
	L152.6,94.6z"/>
<path class="st0" d="M158.6,47.3c0.2,0.3,0.2,0.6,0.3,0.9c0,0.3,0,0.6-0.1,0.9c-0.1,0.3-0.2,0.6-0.4,0.8c-0.2,0.3-0.4,0.5-0.7,0.6
	c-0.3,0.2-0.6,0.3-0.9,0.3c-0.3,0-0.6,0-0.9-0.1c-0.3-0.1-0.6-0.2-0.8-0.4c-0.3-0.2-0.5-0.4-0.6-0.7c-0.2-0.3-0.3-0.6-0.3-0.9
	c-0.1-0.6,0.1-1.3,0.5-1.8c0.2-0.3,0.4-0.5,0.7-0.6c0.3-0.2,0.6-0.3,0.9-0.3c0.3,0,0.6,0,0.9,0.1c0.3,0.1,0.6,0.2,0.9,0.4
	C158.3,46.8,158.5,47,158.6,47.3z M162.3,56.1L176,79.8l-2.3,1.3l-13.7-23.7L162.3,56.1z"/>
<path class="st0" d="M193.9,40.4l15.4,33.7l-2.4,1.1l-6.1-13.2c-0.4,1.9-1.2,3.7-2.2,5.2c-1.1,1.5-2.6,2.8-4.3,3.5
	c-2.7,1.4-5.9,1.4-8.6,0.1c-2.7-1.3-5-4.1-6.9-8.3c-0.8-1.7-1.3-3.5-1.6-5.4c-0.3-1.7-0.2-3.4,0.2-5.1c0.4-1.6,1.1-3,2.1-4.3
	c1.1-1.4,2.6-2.4,4.2-3.1c1.5-0.7,3.2-1.1,4.9-1.1c1.6,0.1,3.2,0.6,4.6,1.4l-1.1-2.9c-0.2-0.3-0.1-0.7,0.2-0.9
	c0.1,0,0.1-0.1,0.2-0.1L193.9,40.4z M194.2,68.5c1.6-0.7,3-1.9,3.9-3.3c1-1.6,1.6-3.4,1.9-5.2l-6-13.1c-1.3-0.9-2.9-1.4-4.5-1.5
	c-1.5,0-3,0.3-4.4,0.9c-1.3,0.6-2.5,1.5-3.5,2.6c-0.9,1-1.4,2.2-1.7,3.5c-0.3,1.4-0.3,2.8-0.1,4.3c0.3,1.6,0.8,3.2,1.5,4.8
	c1.7,3.7,3.6,6.1,5.8,7.2C189.3,69.7,192,69.6,194.2,68.5L194.2,68.5z"/>
<path class="st0" d="M209.3,34.6l5.3,16.7c0.5,2.1,1.8,3.9,3.5,5.2c1.8,1.1,3.9,1.2,5.8,0.5c1.7-0.5,3.2-1.5,4.3-2.8
	c1.2-1.4,2.2-3.1,2.8-4.9l-6.2-19.6l2.5-0.8l8.3,26.1l-1.4,0.4c-0.3,0.2-0.8,0.1-0.9-0.3c0-0.1-0.1-0.1-0.1-0.2l-1.5-3.8
	c-0.7,1.8-1.7,3.5-3,5c-1.3,1.4-3,2.5-4.9,3c-1.3,0.4-2.6,0.6-4,0.5c-1.2-0.1-2.3-0.5-3.3-1.1c-1-0.7-1.9-1.6-2.6-2.6
	c-0.8-1.2-1.5-2.5-1.9-3.9l-5.3-16.7L209.3,34.6z"/>
<path class="st0" d="M251.1,23c1.4-0.3,2.9-0.3,4.4,0c1.4,0.3,2.7,0.8,3.8,1.6c1.2,0.9,2.2,2,2.9,3.3c0.9,1.5,1.5,3.1,1.8,4.8
	c0.1,0.3,0.1,0.6,0,0.8c-0.1,0.2-0.3,0.3-0.5,0.3L244,37.6l0.1,0.5c0.3,1.8,0.9,3.5,1.7,5.2c0.7,1.3,1.6,2.5,2.7,3.5
	c1,0.9,2.3,1.5,3.6,1.7c1.4,0.3,2.8,0.3,4.3,0c1.2-0.2,2.3-0.6,3.4-1.1c0.8-0.4,1.6-0.9,2.3-1.5c0.5-0.4,1-0.8,1.4-1.3
	c0.2-0.3,0.5-0.5,0.8-0.6c0.2-0.1,0.4,0,0.6,0.2l0.9,0.7c-0.4,0.7-0.9,1.3-1.4,1.8c-0.7,0.6-1.4,1.2-2.1,1.7c-0.8,0.5-1.7,1-2.7,1.3
	c-1,0.4-1.9,0.7-3,0.9c-1.7,0.3-3.5,0.3-5.2,0c-1.6-0.3-3.1-1-4.4-2c-1.4-1.1-2.5-2.5-3.4-4c-1-1.9-1.7-3.8-2.1-5.9
	c-0.4-1.8-0.4-3.7-0.2-5.5c0.2-1.6,0.7-3.2,1.6-4.7c0.8-1.4,2-2.6,3.3-3.5C247.7,24,249.4,23.3,251.1,23z M251.5,24.9
	c-1.3,0.2-2.5,0.7-3.6,1.4c-1,0.6-1.8,1.4-2.5,2.4c-0.7,1-1.1,2.1-1.4,3.3c-0.3,1.3-0.4,2.7-0.2,4l17.7-3.4
	c-0.2-1.3-0.7-2.6-1.3-3.8c-0.6-1-1.3-1.9-2.2-2.6c-0.9-0.7-1.9-1.1-2.9-1.4C253.9,24.7,252.7,24.7,251.5,24.9L251.5,24.9z"/>
<path class="st0" d="M274.5,45.4c-0.1-1,0.4-2,1.3-2.5c0.3-0.2,0.6-0.3,1-0.3c0.3,0,0.7,0,1,0.1c0.3,0.1,0.6,0.3,0.9,0.5
	c0.3,0.2,0.5,0.5,0.6,0.8c0.2,0.3,0.3,0.6,0.3,1c0,0.3,0,0.7-0.1,1c-0.1,0.3-0.3,0.6-0.5,0.8c-0.2,0.3-0.5,0.5-0.8,0.6
	c-0.3,0.2-0.7,0.3-1,0.3c-1.4,0.2-2.6-0.8-2.8-2.2C274.5,45.4,274.5,45.4,274.5,45.4L274.5,45.4z"/>
<path class="st0" d="M149.2,453.4c3.3,0,5.7-0.7,7.2-2c1.5-1.2,2.3-2.9,2.3-4.8c0.1-1.6-0.6-3.1-1.8-4.2c-1.6-1.3-3.5-2.2-5.5-2.7
	l-5.4-1.7c-2-0.6-4-1.4-5.9-2.3c-1.6-0.8-3.2-1.8-4.5-3c-1.2-1.1-2.2-2.5-2.9-4.1c-0.7-1.8-1.1-3.7-1-5.6c-0.2-4.3,1.7-8.3,5.1-10.9
	c3.4-2.7,8.2-4.1,14.2-4.1c2.2,0,4.4,0.1,6.6,0.5c1.8,0.3,3.6,0.8,5.2,1.5c1.3,0.5,2.5,1.4,3.4,2.4c0.8,0.9,1.2,2,1.2,3.2
	c0,1-0.2,2.1-0.8,2.9c-0.5,0.8-1.2,1.5-2,2c-1.7-1.1-3.5-1.9-5.4-2.5c-2.4-0.7-4.9-1-7.4-1c-2.9,0-5.2,0.5-6.7,1.6
	c-1.4,0.9-2.3,2.6-2.3,4.3c-0.1,1.3,0.5,2.6,1.6,3.4c1.5,1,3.2,1.8,5,2.3l4.9,1.5c4.9,1.4,8.8,3.4,11.5,6c2.7,2.6,4.1,6,4.1,10.3
	c0,2.2-0.4,4.4-1.3,6.4c-0.9,2-2.2,3.7-3.9,5c-1.9,1.5-4.1,2.6-6.4,3.3c-2.9,0.8-5.8,1.2-8.8,1.2c-2.4,0-4.8-0.2-7.2-0.6
	c-2-0.4-3.9-1-5.7-1.8c-1.4-0.6-2.7-1.5-3.7-2.7c-0.8-0.9-1.3-2.2-1.3-3.4c0-1.2,0.4-2.4,1.1-3.4c0.7-0.9,1.6-1.6,2.7-2.1
	c1.7,1.4,3.6,2.6,5.6,3.4C143.6,453,146.4,453.5,149.2,453.4z"/>
<path class="st0" d="M183.4,451.3c-1.4-2.8-3-6.6-4.9-11.5c-2.2-5.7-4.1-11.6-5.7-17.5c0.7-0.8,1.5-1.3,2.4-1.8
	c1-0.5,2.2-0.7,3.3-0.7c1.3-0.1,2.6,0.3,3.6,1c1.1,1,1.9,2.2,2.3,3.6c2.7,8.5,5.8,17.2,9.2,26h0.3c0.7-1.9,1.5-4,2.3-6.4
	c0.8-2.4,1.6-4.9,2.3-7.5s1.5-5.2,2.1-7.9s1.3-5.2,1.8-7.7c0.7-0.3,1.4-0.6,2.2-0.9c0.8-0.2,1.6-0.4,2.4-0.4c1.3,0,2.7,0.3,3.8,1
	c1.1,0.7,1.7,2,1.6,3.3c-0.1,2.4-0.5,4.8-1.1,7.2c-0.7,3.1-1.7,6.4-2.9,10c-1.2,3.6-2.6,7.2-4.1,10.7c-1.3,3.2-2.9,6.4-4.5,9.5
	c-2.2,4.2-4.9,8.1-8,11.7c-2.4,2.6-4.8,3.9-7.1,3.9c-1.6,0.1-3.2-0.5-4.4-1.5c-1.1-1-1.8-2.4-2.1-3.9c0.9-0.8,1.9-1.7,2.9-2.8
	s2-2.2,3-3.4s2-2.4,2.9-3.7c0.9-1.2,1.6-2.4,2.4-3.7c-0.5-0.2-1-0.4-1.5-0.6c-0.5-0.3-1-0.7-1.4-1.1c-0.6-0.6-1.1-1.3-1.5-2
	C184.4,453.4,183.8,452.4,183.4,451.3z"/>
<path class="st0" d="M279,460.5c-0.5,0.1-1.1,0.3-2,0.4c-0.9,0.2-1.9,0.3-2.9,0.3c-1.6,0.1-3.1-0.2-4.5-1.1c-0.9-0.7-1.4-2-1.4-3.9
	l-0.1-22.1c0-2.3-0.6-3.9-1.9-4.9c-1.4-1.1-3.2-1.6-4.9-1.5c-1.4,0-2.7,0.3-3.9,0.8c-1.2,0.5-2.4,1.2-3.4,2.1
	c0.2,0.8,0.3,1.6,0.3,2.4l0.1,27.7c-0.5,0.1-1.1,0.3-2,0.4c-0.9,0.2-1.9,0.3-2.8,0.3c-1.6,0.1-3.1-0.2-4.5-1.1
	c-0.9-0.7-1.4-2-1.4-3.9l-0.1-22.1c0-2.3-0.7-3.9-2-4.9c-1.4-1.1-3.2-1.6-5-1.5c-1.3,0-2.7,0.2-3.9,0.7c-1,0.4-2,0.8-3,1.4l0.1,30.9
	l-2,0.4c-1,0.2-1.9,0.3-2.9,0.3c-1.6,0.1-3.1-0.3-4.4-1.1c-1-0.7-1.4-2-1.5-3.9l-0.1-27.3c0-1.2,0.2-2.3,0.8-3.3
	c0.7-1,1.6-1.9,2.6-2.5c2-1.3,4.2-2.3,6.4-2.9c2.6-0.8,5.3-1.2,8.1-1.2c5.2,0,9.4,1.4,12.6,4.1c1.7-1.2,3.6-2.3,5.6-3
	c2.4-0.9,5-1.3,7.5-1.2c2.1,0,4.2,0.2,6.3,0.8c1.9,0.5,3.6,1.4,5.1,2.6c1.5,1.2,2.7,2.8,3.5,4.5c0.9,2.1,1.4,4.3,1.3,6.6L279,460.5z
	"/>
<path class="st0" d="M309,419c2.6,0,5.2,0.4,7.6,1.3c2.3,0.9,4.4,2.2,6.2,4c1.8,1.9,3.2,4.1,4.1,6.6c1.1,3,1.6,6.1,1.5,9.3
	c0.1,3.2-0.4,6.4-1.5,9.4c-0.9,2.5-2.4,4.8-4.3,6.7c-1.9,1.9-4.2,3.3-6.7,4.1c-2.8,1-5.8,1.4-8.8,1.4c-2.9,0.1-5.8-0.3-8.6-1.1
	c-2.1-0.6-4.1-1.6-6-2.8c-1.1-0.7-2-1.5-2.6-2.6c-0.6-1-0.9-2.2-0.9-3.4l-0.2-46.6c0.7-0.2,1.3-0.4,2-0.5c1-0.2,2-0.2,2.9-0.2
	c1.6-0.1,3.1,0.3,4.4,1.1c1,0.7,1.5,2,1.5,3.9l0.1,11.6C302.6,419.8,305.8,419,309,419z M307.2,427.5c-1.4,0-2.9,0.3-4.2,0.8
	c-1.2,0.5-2.3,1-3.4,1.7l0.1,21.2c0.9,0.5,2,1,3,1.3c1.4,0.4,2.9,0.7,4.3,0.6c2.9,0.1,5.7-1.1,7.6-3.2c1.9-2.1,2.9-5.4,2.9-9.8
	s-1-7.6-2.9-9.7C312.7,428.5,310,427.4,307.2,427.5L307.2,427.5z"/>
<path class="st0" d="M376.1,440c0.1,3-0.4,6-1.5,8.9c-0.9,2.5-2.3,4.8-4.2,6.8c-1.8,1.9-4,3.4-6.5,4.3c-5.5,2-11.6,2-17.2,0.1
	c-2.5-0.9-4.7-2.4-6.6-4.2c-1.9-1.9-3.3-4.2-4.2-6.7c-2-5.8-2-12.1-0.1-17.9c0.9-2.5,2.3-4.8,4.2-6.7c1.9-1.9,4.1-3.3,6.6-4.3
	c5.5-2,11.5-2,17-0.1c2.5,0.9,4.7,2.4,6.6,4.3c1.9,1.9,3.3,4.2,4.3,6.7C375.6,434,376.1,437,376.1,440z M355.2,427.3
	c-2.8-0.1-5.5,1.2-7.2,3.4c-1.7,2.3-2.6,5.4-2.6,9.5c0,4.1,0.9,7.2,2.6,9.5c3.5,4,9.5,4.4,13.5,0.9c0.4-0.3,0.7-0.7,1-1
	c1.7-2.2,2.6-5.4,2.5-9.5c0-4.1-0.9-7.2-2.7-9.5C360.7,428.4,358,427.1,355.2,427.3L355.2,427.3z"/>
<path class="st0" d="M393.4,460.4c-0.9,0.2-1.9,0.3-2.8,0.3c-1.6,0.1-3.1-0.2-4.5-1.1c-0.9-0.7-1.4-2-1.4-3.9l-0.2-50.8
	c0.7-0.2,1.3-0.4,2-0.5c0.9-0.1,1.9-0.2,2.8-0.2c1.6-0.1,3.1,0.2,4.5,1.1c0.9,0.7,1.4,2,1.4,3.9l0.2,50.9
	C395,460.1,394.3,460.2,393.4,460.4z"/>
<path class="st0" d="M405.1,442.5c-0.3-0.6-0.6-1.2-0.8-1.9c-0.2-0.8-0.4-1.6-0.4-2.4c-0.1-1.2,0.3-2.5,1.1-3.4
	c0.8-0.8,1.9-1.2,3-1.1l19.2-0.1c0.3,0.6,0.6,1.2,0.8,1.8c0.2,0.8,0.4,1.6,0.4,2.4c0.1,1.2-0.3,2.5-1.1,3.4c-0.8,0.8-1.9,1.2-3,1.1
	L405.1,442.5z"/>
<path class="st0" d="M435.9,407.6c0-1.6,0.6-3.1,1.7-4.2c1.2-1.2,2.8-1.8,4.5-1.8c3.3,0,6,2.7,6,6s-2.7,6-6,6
	c-1.7,0.1-3.3-0.6-4.5-1.7C436.5,410.8,435.8,409.2,435.9,407.6z M436.8,419.9c0.5-0.1,1.1-0.2,2-0.4c0.9-0.2,1.9-0.3,2.9-0.3
	c1.6-0.1,3.1,0.3,4.5,1.1c0.9,0.7,1.4,2,1.4,3.9l0.2,35.5c-0.5,0.1-1.1,0.3-2,0.4c-0.9,0.2-1.9,0.3-2.9,0.3
	c-1.6,0.1-3.1-0.2-4.5-1.1c-0.9-0.7-1.4-2-1.4-3.9L436.8,419.9z"/>
<path class="st0" d="M470.4,451.1c1.4,0.9,3,1.3,4.6,1.2c1,0,2-0.1,2.9-0.4c0.9-0.2,1.8-0.5,2.7-0.9c0.5,0.5,0.9,1,1.2,1.7
	c0.3,0.7,0.5,1.5,0.5,2.2c0,1.7-0.9,3.3-2.3,4.2c-1.5,1.1-4,1.7-7.4,1.7c-4.5,0-8-1-10.6-3s-3.9-5.3-3.9-10l-0.2-39
	c0.5-0.1,1.1-0.3,2-0.4c0.9-0.2,1.9-0.3,2.9-0.3c1.5-0.1,3.1,0.3,4.4,1.1c0.9,0.7,1.4,2,1.4,3.9v7h12.5c0.3,0.6,0.6,1.2,0.8,1.8
	c0.2,0.8,0.4,1.6,0.4,2.4c0.1,1.2-0.3,2.3-1,3.2c-0.7,0.7-1.7,1.1-2.7,1l-9.9,0l0.1,18.5C468.5,448.7,469.2,450.2,470.4,451.1z"/>
<path class="st0" d="M364.6,222.9c-7.9,20.2-13.5,27.5-23.4,37.2l-0.5,0.5c-3.2,3.2-6.6,6.3-10.1,9.1c-3.6,2.9-7.4,5.5-11.2,8
	c-4.8,3.1-9.9,6-14.9,8.7c-5.5,3-11,5.8-16.5,8.8s-10.9,6-16.1,9.4c-4.7,3-9.1,6.4-13.3,10.1c-8.7,7.8-15.5,17.3-20.1,28
	c-2.9,6.9-5.1,14.1-6.5,21.5c-0.6,3.1-1.1,6.3-1.5,9.5c-0.4,2.8-0.6,5.6-0.9,8.3c0,0.4,0,0.8-0.1,1.2c0,0.1,0,0.4,0.2,0.4
	s0.3-0.1,0.4-0.3c0.5-0.6,1-1.3,1.5-1.9c4.8-5.6,10.1-10.8,15.8-15.5c6.3-5.2,13-10,20.1-14.2c0.5-0.3,1-0.6,1.5-0.8
	c5-2.6,10.1-5,15.3-7.2c6.9-3,14-5.7,21-8.4c6-2.3,12-4.5,17.9-7c5.4-2.2,10.7-4.5,15.9-7.2c4.3-2.2,8.4-4.7,12.4-7.5
	c4.6-3.3,8.7-7.4,12.1-12c0.4-0.6,0.9-1.2,1.4-1.8c3.3-4.6,6.2-9.4,8.5-14.6c3.3-7.1,5.2-14.8,5.5-22.6c0.1-2.6,0.1-5.2-0.2-7.8
	c-0.4-3.8-1.2-7.6-2.4-11.2c-2.2-7-5.7-13.5-10.3-19.2C365.6,223.8,365.2,223.3,364.6,222.9"/>
<path class="st1" d="M364.6,222.9L364.6,222.9c-0.7-0.6-1.3-1.1-2-1.5c-2.7-1.7-5.6-3-8.7-4.1c-2.9-1-5.9-1.8-8.9-2.4
	c-2.1-0.4-4.2-0.8-6.4-1.1c-1.7-0.2-3.4-0.3-5-0.5c-2.7-0.3-5.5-0.5-8.2-0.5c-8.1-0.2-16.2-0.1-24.2,0.4c-1.8,0.1-3.5,0.2-5.2,0.3
	l-1,0.1l-2.4,0.2c-0.6,0-1.2,0.1-1.7,0.1l-2.8,0.2l-1.2,0.1c-1.8,0.2-3.6,0.4-5.4,0.6l-4.9,0.5l-3.5,0.4c-2.2,0.3-5.6,0.9-7.9,1.1
	c-28.2,18.9-26.7,28.9-26.7,28.8v0.1c1.3,1.2,3.1,1.8,4.9,1.7c1.5,0,2.9-0.2,4.4-0.3l2.6-0.2l2.6-0.1c1-0.1,2.1-0.1,3.1-0.2
	c5.8-0.1,11.5-0.1,17.2,0c0.9,0,1.8,0.1,2.6,0.1c1.1,0.1,2.2,0.1,3.3,0.2c2.1,0.1,4.3,0.3,6.4,0.4c1.2,0.1,2.3,0.2,3.5,0.4
	s2.4,0.4,3.6,0.5c2.7,0.4,5.4,0.8,8.1,1.2c4.1,0.7,8.2,1.4,12.4,2.3c6.4,1.3,12.7,2.8,19,4.6c2.6,0.8,5.2,1.6,7.8,2.4
	c0.4,0.1,0.8,0.3,1.1,0.4c0.4,0.1,0.7,0.1,1.1,0.1c13.3-10.8,21.6-34,22.5-36.2L364.6,222.9z"/>
<path class="st0" d="M238.4,245.6c-0.3-0.3-0.7-0.6-0.9-1c-1-1.2-1.7-2.5-2.1-4c-0.7-2.4-1.4-4.8-2-7.2c-0.9-3.8-1.7-7.6-2.4-11.4
	c-0.4-2.1-0.7-4.2-0.9-6.4c-0.4-2.8-0.6-5.7-0.6-8.5c0-2.4,0-4.9,0.1-7.3c0.2-5.6,1.3-11.1,3.2-16.4c2.6-7.3,6.9-13.8,12.6-19
	c3.7-3.3,7.6-6.3,11.9-8.8c3.8-2.2,7.8-4.3,11.8-6.1c5.8-2.7,11.8-5,17.7-7.3c7.1-2.7,14.1-5.3,21.2-8c7.3-2.8,14.5-5.9,21.6-9.3
	c3.5-1.8,7-3.7,10.3-5.9c5.7-3.6,11.1-7.6,16.3-12c7.2-6,13.9-12.6,20.1-19.6c0.6-0.7,1.1-1.3,1.7-2c0.1-0.1,0.3-0.1,0.5-0.1
	c0.1,0.9,0.1,1.8,0.1,2.7c0,3.4,0,6.7-0.1,10.1s-0.2,6.6-0.5,9.9c-0.2,2-0.3,4-0.5,5.9c-0.2,2.1-0.5,4.3-0.8,6.4
	c-0.4,3-1,6.1-1.7,9.1c-0.6,2.7-1.4,5.3-2.3,7.9c-0.9,2.2-2,4.4-3.4,6.3c-3.9,5.5-8.2,10.7-13,15.5c-4.4,4.3-9.1,8.4-14,12.1
	c-6.8,5.1-13.8,9.9-21.1,14.2c-8.4,5.1-17,9.8-25.8,14.4c-4.1,2.1-8.3,4.2-12.4,6.4c-5.4,2.8-10.6,5.8-15.7,9
	c-0.4,0.2-0.8,0.5-1.1,0.8c-28.4,19.4-27.8,29.6-27.7,29.7"/>
</svg>
